<svg xmlns="http://www.w3.org/2000/svg" viewBox="0 0 74 57"><title>madebymodo + monogram</title><g fill="none" fill-rule="evenodd"><path fill="#54AEDD" d="M58.91 20.514C58.91 9.206 49.78.04 38.515.04 27.25.04 18.118 9.205 18.118 20.513S27.25 40.99 38.514 40.99c11.265 0 20.397-9.168 20.397-20.476"/><path fill="#F9F9F9" d="M29.525 11.436v17.96h17.89l-17.89-17.96"/><path fill="#F0F1F1" d="M29.525 29.396h17.89l-9.83-9.868-8.06 8.092v1.776"/><path fill="#FFF" d="M47.416 11.436v17.96h-17.89l17.89-17.96"/><path fill="#767676" d="M2.232 49.44c.3-.276.936-.624 1.452-.624.684 0 .852.42.852 1.152V54h1.38v-4.26c0-.108 0-.228-.012-.324.3-.276.912-.6 1.404-.6.684 0 .864.42.864 1.152V54h1.38v-4.236c0-1.392-.528-2.1-1.8-2.1-.84 0-1.536.336-2.076.804-.264-.576-.768-.804-1.56-.804-.816 0-1.464.324-2.028.768l-.048-.636H.852V54h1.38v-4.56zm13.692.384c0-1.548-.744-2.16-2.328-2.16-1.524 0-2.268.624-2.46 1.788l1.212.216c.132-.648.384-.96 1.14-.96.912 0 1.08.432 1.08 1.188v.468c-.168-.012-.348-.024-.636-.024-1.668 0-3.036.528-3.036 2.136 0 .612.276 1.668 1.836 1.668.864 0 1.548-.3 1.968-.756.108.48.396.732 1.044.732.336 0 .732-.084.972-.204l-.048-.816c-.156.048-.264.072-.372.072-.312 0-.372-.144-.372-.48v-2.868zm-1.344 2.712c-.276.288-.792.576-1.356.576-.732 0-.924-.396-.924-.828 0-.912 1.008-.996 1.704-.996.312 0 .456.012.576.024v1.224zm8.4-7.596h-1.344v3.264c-.42-.36-.96-.54-1.668-.54-1.344 0-2.616.876-2.616 3.336 0 2.244.972 3.144 2.4 3.144.852 0 1.464-.3 1.956-.768h.024l.096.624h1.152v-9.06zm-1.38 7.452c-.336.348-.876.636-1.404.636-.996 0-1.416-.696-1.416-2.04 0-1.296.396-2.196 1.476-2.196.588 0 1.08.276 1.344.48v3.12zm5.652 1.752c1.344 0 2.292-.672 2.532-1.848l-1.176-.288c-.144.636-.48 1.008-1.272 1.008-.9 0-1.524-.468-1.56-1.776h4.02c.024-.288.036-.576.036-.828 0-1.608-.744-2.748-2.544-2.748-1.62 0-2.964.996-2.964 3.24 0 1.704.696 3.24 2.928 3.24zM25.8 50.28c.06-1.104.708-1.524 1.404-1.524.828 0 1.2.468 1.2 1.524H25.8zM32.16 54l.06-.528c.456.336 1.104.672 1.824.672 1.392 0 2.592-.972 2.592-3.36 0-2.244-.936-3.036-2.22-3.036-.948 0-1.608.372-2.172.84V44.94h-.792V54h.708zm.096-4.68c.396-.408 1.176-.912 1.956-.912 1.092 0 1.608.66 1.608 2.34 0 1.596-.468 2.712-1.776 2.712-.816 0-1.488-.504-1.788-.732V49.32zm7.272 4.728c-.444 1.548-.936 1.968-1.512 1.968-.348 0-.816-.12-1.008-.18l-.12.624c.228.096.66.216 1.104.216 1.068 0 1.512-.564 2.16-2.316.792-2.052 1.716-4.476 2.472-6.492h-.816l-1.872 5.184-1.8-5.184h-.864l2.256 6.18zm5.448-4.608c.3-.276.936-.624 1.452-.624.684 0 .852.42.852 1.152V54h1.38v-4.26c0-.108 0-.228-.012-.324.3-.276.912-.6 1.404-.6.684 0 .864.42.864 1.152V54h1.38v-4.236c0-1.392-.528-2.1-1.8-2.1-.84 0-1.536.336-2.076.804-.264-.576-.768-.804-1.56-.804-.816 0-1.464.324-2.028.768l-.048-.636h-1.188V54h1.38v-4.56zm11.544 4.704c2.136 0 3.024-1.32 3.024-3.36 0-1.836-.816-3.12-2.868-3.12s-3.084 1.272-3.084 3.264c0 1.848.744 3.216 2.928 3.216zm.072-1.068c-1.08 0-1.56-.684-1.56-2.196s.612-2.1 1.596-2.1c.972 0 1.476.528 1.476 2.076 0 1.596-.564 2.22-1.512 2.22zm9.636-8.136h-1.344v3.264c-.42-.36-.96-.54-1.668-.54-1.344 0-2.616.876-2.616 3.336 0 2.244.972 3.144 2.4 3.144.852 0 1.464-.3 1.956-.768h.024l.096.624h1.152v-9.06zm-1.38 7.452c-.336.348-.876.636-1.404.636-.996 0-1.416-.696-1.416-2.04 0-1.296.396-2.196 1.476-2.196.588 0 1.08.276 1.344.48v3.12zm5.652 1.752c2.136 0 3.024-1.32 3.024-3.36 0-1.836-.816-3.12-2.868-3.12s-3.084 1.272-3.084 3.264c0 1.848.744 3.216 2.928 3.216zm.072-1.068c-1.08 0-1.56-.684-1.56-2.196s.612-2.1 1.596-2.1c.972 0 1.476.528 1.476 2.076 0 1.596-.564 2.22-1.512 2.22z"/></g></svg>