<svg xmlns="http://www.w3.org/2000/svg" viewBox="0 0 2365.8 582.4"><path fill="#676767" d="M2160.8 194.8c-22.5 0-40.9 18.3-40.9 40.9s18.3 40.9 40.9 40.9 40.9-18.3 40.9-40.9-18.3-40.9-40.9-40.9zm0 73.8c-18.1 0-32.9-14.7-32.9-32.9s14.7-32.9 32.9-32.9 32.9 14.7 32.9 32.9-14.7 32.9-32.9 32.9zm.4-34.2l16.2-16.2v32.3h-32.3v-32.3l16.1 16.2zM272.1 321.6h-38.6v47.9h-37.8V201.9h72.8c43.8 0 68.7 21.1 68.7 58.2 0 25.9-11 44.5-31.4 54.1l35.7 55.3h-42.9l-26.5-47.9zm-3.6-31.6c20.8 0 32.8-9.6 32.8-28.7 0-18.7-12-28-32.8-28h-35V290h35zm422.7-71.6l-14.6 31.4c-17.7-10.5-38.8-17.2-52.2-17.2-12.7 0-21.3 4.5-21.3 13.6 0 30.9 89.3 13.6 89.1 74 0 32.8-28.5 50.5-65.6 50.5-27.5 0-55.1-10.5-74-26.6l15.1-30.9c17.2 15.3 41.7 25.1 59.4 25.1 15.6 0 24.9-5.7 24.9-16 0-31.6-89.3-13.2-89.3-72.6 0-30.4 26.1-49.6 64.9-49.6 23.3.1 46.8 7.3 63.6 18.3zm113-16.5c42.6 0 67 21.1 67 58.2 0 39-24.4 61.5-67 61.5h-33.3v47.9h-37.8V201.9h71.1zM770.9 290h31.4c21.1 0 33-9.6 33-28.7 0-18.7-12-28-33-28h-31.4V290zm307-4.3c0 48.4-38.8 85.5-90 85.5s-90-36.9-90-85.5c0-48.8 38.8-85 90-85s90 36.4 90 85zm-141.3 0c0 29.5 23.7 52.4 51.7 52.4s50.8-23 50.8-52.4-22.7-52-50.8-52c-28.2 0-51.7 22.5-51.7 52zm297.9 83.8L1153.3 262v107.5h-36.2V201.9h34.5l81.4 107.7V201.9h35.9v167.6h-34.4zm210.7-151.1l-14.6 31.4c-17.7-10.5-38.8-17.2-52.2-17.2-12.7 0-21.3 4.5-21.3 13.6 0 30.9 89.3 13.6 89.1 74 0 32.8-28.5 50.5-65.6 50.5-27.5 0-55.1-10.5-74-26.6l15.1-30.9c17.2 15.3 41.7 25.1 59.4 25.1 15.6 0 24.9-5.7 24.9-16 0-31.6-89.3-13.2-89.3-72.6 0-30.4 26.1-49.6 64.9-49.6 23.3.1 46.8 7.3 63.6 18.3zm41.9 151.1V201.9h37.8v167.6h-37.8zm136.7 0L1558 201.9h40.7l45.7 126.4 46-126.4h39l-66.6 167.6h-39zm178.4-31.6h95.1l-.2 31.6h-145.8v-25.6l93.9-110.4h-90.7v-31.6H1896v25.4l-93.8 110.6zm211.6-16.3h-38.6v47.9h-37.8V201.9h72.8c43.8 0 68.7 21.1 68.7 58.2 0 25.9-11 44.5-31.4 54.1l35.7 55.3h-42.9l-26.5-47.9zm-3.5-31.6c20.8 0 32.8-9.6 32.8-28.7 0-18.7-12-28-32.8-28h-35V290h35zm116.1 79.5l6.6-47h5.5l-2.7 19.2c3.2-2.5 6.9-4.8 11.6-4.8 5.7 0 9.7 3.3 9.7 12.1 0 14.8-7.4 21.2-15.2 21.2-3.9 0-7.1-1.4-9.6-3.6h-.1l-.6 2.9h-5.2zm6.7-7.3c1.2 1.1 4 3.2 8 3.2 7.6 0 10.2-7.9 10.2-16.1 0-5.5-1.8-7.9-5.6-7.9-3.6 0-8.2 2.9-10.3 4.7l-2.3 16.1zm29.8-5.9c0-10.5 6.2-19.4 17.1-19.4 7 0 10.3 3.7 10.3 8.3 0 5.4-3.5 8.4-8.3 9.9-4.7 1.5-10.3 1.8-13.4 1.9.1 4.4 1.1 8.8 7.7 8.8 4.5 0 7.2-2.7 8.2-6l4.7 1.1c-1.9 6.3-7.3 9.4-13.7 9.4-9.4-.1-12.6-6.4-12.6-14zm5.9-3.6c1.5-.1 6.7-.3 11-1.6 3.1-1 5.1-2.7 5.1-5.7 0-2.8-2-4.2-5.2-4.2-6.6 0-10.1 5.3-10.9 11.5zm43.8 15.5c-1.7 1.1-4.9 2-7.8 2-6.1 0-9-2.9-8.1-9.2l2.7-19.4h-5l.6-4.2h5l1.3-9.2 5.7-.8-1.4 10h8.8l-.6 4.2h-8.8l-2.7 18.7c-.5 3.4-.1 5.5 3.7 5.5 2.1 0 4.3-.8 5.7-1.6l.9 4zm30.8-4.8c-.2 1.7 0 2.7 1.6 2.7.6 0 1.1-.1 2-.3l-.4 3.4c-.9.4-2.4.6-3.7.6-3 0-4.7-1.2-4.7-4.5-2.7 2.9-6.9 4.9-11.1 4.9-6 0-10.3-3.6-10.3-12.4 0-10.5 4.9-21 15.6-21 3.7 0 6.9 1.7 8.9 3.4l.5-2.8h5.2l-3.6 26zm-2.9-18.8c-1.6-1.6-4.7-3.1-7.8-3.1-7.8 0-10.2 9.4-10.2 15.8 0 6.1 2.4 8.3 6.2 8.3 3 0 5.7-1.1 9.5-4.6l2.3-16.4z"/><path fill="#7ED321" d="M383 202h128.9v33.7H383z"/><path fill="#F6A623" d="M420.7 270.4h62.1V301h-62.1z"/><path fill="#E53350" d="M419.2 335.8h92.7v33.7h-92.7z"/></svg>